<?xml version="1.0" standalone="no"?>
<!DOCTYPE svg PUBLIC "-//W3C//DTD SVG 20010904//EN"
 "http://www.w3.org/TR/2001/REC-SVG-20010904/DTD/svg10.dtd">
<svg version="1.0" xmlns="http://www.w3.org/2000/svg"
 width="16.000000pt" height="16.000000pt" viewBox="0 0 16.000000 16.000000"
 preserveAspectRatio="xMidYMid meet">

<g transform="translate(0.000000,16.000000) scale(0.100000,-0.100000)"
fill="#000000" stroke="none">
<path d="M30 130 c-26 -26 -26 -74 0 -100 43 -43 120 -11 120 50 0 60 -78 92
-120 50z m92 -7 c38 -34 11 -103 -40 -103 -54 0 -81 62 -45 102 20 22 61 23
85 1z"/>
<path d="M53 104 c-3 -8 -1 -20 6 -27 16 -16 14 -25 -6 -29 -10 -3 2 -4 27 -4
25 0 37 1 28 4 -21 4 -23 13 -7 29 17 17 3 43 -21 43 -11 0 -23 -7 -27 -16z
m45 -11 c-4 -23 -32 -23 -36 0 -2 12 3 17 18 17 15 0 20 -5 18 -17z"/>
</g>
</svg>
